<svg width="18" height="18" viewBox="0 0 18 18" fill="none" xmlns="http://www.w3.org/2000/svg">
<path d="M9 1.125C4.65117 1.125 1.125 4.65117 1.125 9C1.125 13.3488 4.65117 16.875 9 16.875C13.3488 16.875 16.875 13.3488 16.875 9C16.875 4.65117 13.3488 1.125 9 1.125ZM9 15.5391C5.38945 15.5391 2.46094 12.6105 2.46094 9C2.46094 5.38945 5.38945 2.46094 9 2.46094C12.6105 2.46094 15.5391 5.38945 15.5391 9C15.5391 12.6105 12.6105 15.5391 9 15.5391Z" fill="#969696"/>
<path d="M12.6457 8.77283L7.44082 4.99353C7.39908 4.96293 7.34966 4.94452 7.29807 4.94036C7.24647 4.9362 7.19474 4.94644 7.14863 4.96995C7.10252 4.99346 7.06384 5.02932 7.03691 5.07352C7.00998 5.11772 6.99585 5.16853 6.9961 5.22029V12.7789C6.9961 13.0092 7.25625 13.1392 7.44082 13.0056L12.6457 9.22634C12.6816 9.20045 12.7109 9.16638 12.7311 9.12696C12.7513 9.08753 12.7618 9.04388 12.7618 8.99958C12.7618 8.95529 12.7513 8.91163 12.7311 8.87221C12.7109 8.83278 12.6816 8.79872 12.6457 8.77283ZM8.11758 11.1283V6.87087L11.0479 8.99958L8.11758 11.1283Z" fill="#969696"/>
</svg>
