<svg width="14" height="10" viewBox="0 0 14 10" fill="none" xmlns="http://www.w3.org/2000/svg">
<path fill-rule="evenodd" clip-rule="evenodd" d="M8.29697e-05 4.50063C8.29697e-05 4.36802 0.0527611 4.24085 0.146529 4.14708C0.240297 4.05331 0.367475 4.00063 0.500083 4.00063H12.2931L9.14608 0.854632C9.0996 0.808144 9.06272 0.752955 9.03756 0.692215C9.0124 0.631476 8.99945 0.566375 8.99945 0.500632C8.99945 0.434888 9.0124 0.369788 9.03756 0.309048C9.06272 0.248309 9.0996 0.193119 9.14608 0.146631C9.19257 0.100144 9.24776 0.0632674 9.3085 0.0381083C9.36924 0.0129493 9.43434 0 9.50008 0C9.56583 0 9.63093 0.0129493 9.69167 0.0381083C9.75241 0.0632674 9.8076 0.100144 9.85408 0.146631L13.8541 4.14663C13.9006 4.19308 13.9376 4.24825 13.9628 4.309C13.988 4.36974 14.001 4.43486 14.001 4.50063C14.001 4.5664 13.988 4.63152 13.9628 4.69226C13.9376 4.75301 13.9006 4.80819 13.8541 4.85463L9.85408 8.85463C9.8076 8.90112 9.75241 8.938 9.69167 8.96315C9.63093 8.98831 9.56583 9.00126 9.50008 9.00126C9.43434 9.00126 9.36924 8.98831 9.3085 8.96315C9.24776 8.938 9.19257 8.90112 9.14608 8.85463C9.0996 8.80814 9.06272 8.75295 9.03756 8.69221C9.0124 8.63148 8.99945 8.56637 8.99945 8.50063C8.99945 8.43489 9.0124 8.36979 9.03756 8.30905C9.06272 8.24831 9.0996 8.19312 9.14608 8.14663L12.2931 5.00063H0.500083C0.367475 5.00063 0.240297 4.94795 0.146529 4.85419C0.0527611 4.76042 8.29697e-05 4.63324 8.29697e-05 4.50063Z" fill="#5C50E3"/>
</svg>
