<svg width="18" height="14" viewBox="0 0 18 14" fill="none" xmlns="http://www.w3.org/2000/svg">
<path d="M17.9998 1.70441C17.3258 1.98888 16.6108 2.17561 15.8788 2.25838C16.6413 1.82297 17.2268 1.13349 17.5025 0.311979C16.7776 0.721787 15.9845 1.01052 15.1575 1.16571C14.4838 0.481989 13.5241 0.0546875 12.4619 0.0546875C10.4224 0.0546875 8.76891 1.62992 8.76891 3.57277C8.76891 3.84855 8.80161 4.11703 8.86454 4.37459C5.79539 4.22782 3.0743 2.82722 1.25286 0.698687C0.935043 1.21829 0.752934 1.82271 0.752934 2.46738C0.752934 3.68799 1.40494 4.76478 2.39579 5.39572C1.80934 5.37822 1.2358 5.22732 0.723051 4.95562C0.72284 4.97036 0.72284 4.9851 0.72284 4.9999C0.72284 6.70448 1.99578 8.12645 3.68511 8.44966C3.1413 8.59056 2.57088 8.61118 2.01743 8.50995C2.48733 9.90767 3.85118 10.9248 5.46711 10.9532C4.20324 11.8968 2.61087 12.4593 0.880762 12.4593C0.582637 12.4593 0.288731 12.4426 -0.000183105 12.4101C1.63409 13.4083 3.57521 13.9908 5.66068 13.9908C12.4534 13.9908 16.1678 8.62985 16.1678 3.98078C16.1678 3.82819 16.1642 3.67647 16.1571 3.52561C16.88 3.0277 17.5041 2.41098 17.9998 1.70441Z" fill="white"/>
</svg>
